# Blender 4.0.2
# www.blender.org
o Cube.001
v -1.000000 -0.011500 0.974409
v -1.000000 -0.011500 -1.487036
v -1.000000 0.011500 -1.487036
v 1.000000 -0.011500 0.974409
v 1.000000 -0.011500 -1.487036
v 1.000000 0.011500 -1.487036
v -1.000000 -0.011500 0.385582
v -1.000000 0.011500 0.385582
v 1.000000 -0.011500 0.385582
v 1.000000 0.011500 0.385582
v -1.000000 -0.011128 -1.513358
v -1.000000 2.000000 -1.513358
v -1.000000 -0.011128 -1.486642
v -1.000000 2.000000 -1.486642
v 1.000000 -0.011128 -1.513358
v 1.000000 2.000000 -1.513358
v 1.000000 -0.011128 -1.486642
v 1.000000 2.000000 -1.486642
vn -1.0000 -0.0000 -0.0000
vn -0.0000 -0.0000 -1.0000
vn 1.0000 -0.0000 -0.0000
vn -0.0000 -1.0000 -0.0000
vn -0.0000 0.9992 0.0390
vn -0.0000 1.0000 -0.0000
vn -0.0000 -0.0000 1.0000
vt 0.278422 0.052598
vt 0.198141 0.116985
vt 0.198141 0.052598
vt 0.278422 0.116985
vt 0.198141 0.197266
vt 0.198141 0.261652
vt 0.278422 0.261652
vt 0.198141 0.277547
vt 0.117860 0.277547
vt 0.117860 0.261652
vt 0.358703 0.261652
vt 0.278422 0.277547
vt 0.358703 0.197266
vt 0.278422 0.197266
vt 0.117860 0.197266
vt 0.278422 0.036704
vt 0.198141 0.036704
vt 0.198141 0.357828
vt 0.358703 0.277547
vt 0.278422 0.357828
s 0
f 8/1/1 2/2/1 7/3/1
f 3/4/2 5/5/2 2/2/2
f 9/6/3 10/7/3 4/8/3
f 9/6/4 1/9/4 7/10/4
f 8/11/5 4/12/5 10/7/5
f 3/13/6 10/7/6 6/14/6
f 5/5/4 7/10/4 2/15/4
f 6/14/3 9/6/3 5/5/3
f 1/16/1 8/1/1 7/3/1
f 12/16/1 11/17/1 13/2/1
f 14/4/7 13/2/7 17/5/7
f 18/14/3 17/5/3 15/8/3
f 16/12/2 15/8/2 11/18/2
f 17/5/4 13/15/4 11/9/4
f 14/13/6 18/14/6 16/12/6
f 8/1/1 3/4/1 2/2/1
f 3/4/2 6/14/2 5/5/2
f 9/6/4 4/8/4 1/9/4
f 8/11/5 1/19/5 4/12/5
f 3/13/6 8/11/6 10/7/6
f 5/5/4 9/6/4 7/10/4
f 6/14/3 10/7/3 9/6/3
f 12/16/1 13/2/1 14/4/1
f 14/4/7 17/5/7 18/14/7
f 18/14/3 15/8/3 16/12/3
f 16/12/2 11/18/2 12/20/2
f 17/5/4 11/9/4 15/8/4
f 14/13/6 16/12/6 12/19/6
